<?xml version="1.0" encoding="UTF-8"?>
<svg id="Layer_1" data-name="Layer 1" xmlns="http://www.w3.org/2000/svg" viewBox="0 0 120 92">
  <g>
    <g>
      <polygon points="30.62 26.17 29.28 24.84 11.32 42.84 11.33 42.85 11.32 42.86 29.28 60.86 30.62 59.52 13.98 42.85 30.62 26.17" fill="#969696"/>
      <polygon points="47.29 42.84 29.29 24.84 27.95 26.17 44.63 42.85 27.95 59.52 29.29 60.86 47.29 42.86 47.28 42.85 47.29 42.84" fill="#2e87c8"/>
    </g>
    <g>
      <path d="M28.74,48.86v-.7c2.01-.2,2.11-.37,2.08-2.92l-.08-9.75h-.1l-6.08,13.22h-.5l-5.6-12.89h-.07l-.37,6.83c-.1,2.01-.1,3.04-.05,4,.05,1.15.63,1.31,2.28,1.48v.73h-5.83v-.73c1.43-.13,1.91-.48,2.11-1.44.13-.85.28-1.89.48-4.5l.37-4.88c.22-3.16.07-3.29-2.16-3.5v-.73h4.24l5.63,11.94,5.71-11.94h4.35v.73c-2.18.18-2.33.27-2.24,2.67l.23,8.77c.08,2.56.15,2.72,2.31,2.92v.7h-6.71Z" fill="#2e87c8"/>
      <g>
        <path d="M30.21,40.16c.13,1.41,1.72,2.18,3.34,3.28,2.31,1.58,5.16,3.42,5.16,5.45,0,3.72-3.42,5.56-6.76,5.56-2.09,0-3.99-.73-4.67-1.3-.27-.52-.65-3.31-.71-4.88l1.11-.16c.76,2.66,2.58,5.02,4.97,5.02,1.47,0,2.77-1.11,2.77-2.69s-1.06-2.52-3.12-3.45c-2.33-1.06-5.13-2.42-5.13-5.56,0-2.09,1.34-3.93,3.57-4.75,0,.59,0,1.17.01,1.76-.29.42-.61,1.02-.55,1.72Z" fill="#221f1f"/>
        <path d="M32.94,37.53c1.86.12,3.19,1.74,3.95,3.98l1.09-.33c-.08-.95-.57-3.39-.92-4.26-.81-.35-1.9-.71-3.64-.71-.17,0-.34,0-.51.01l.04,1.3" fill="#221f1f"/>
      </g>
      <g>
        <path d="M33.03,53.1s1.6-.12,2.23-1.74c0,0,0,0,0,0-.23-.6-.36-1.32-.36-2.16,0-2.92,1.58-4.31,3.32-4.31,1,0,1.96.38,2.86,1.19.24.24.38.32.55.32.36,0,.98-.62.98-1.26,0-.3-.08-.55-.45-.85-.45-.4-1.38-.73-2.52-.73h-.04c-1.07,0-2.77.43-4.31,1.56-1.88,1.39-2.84,3.26-2.84,5.35,0,.91.21,1.82.6,2.63,0,0,0,0,0,0Z" fill="#969696"/>
        <path d="M42.53,52.74c-1.26,1.17-2.2,1.49-3.37,1.49-.75,0-1.81-.3-2.68-1.08,0,0,0,0,0,0,0,0-1.16.83-2.68,1.12.99,1.17,2.48,1.95,4.41,1.95,1.64,0,3.54-1.22,4.8-2.86l-.47-.62Z" fill="#969696"/>
      </g>
    </g>
  </g>
  <g>
    <path d="M53.18,45.25l-.74,2.26c-.07.22-.15.52-.24.9h-.01c-.06-.3-.14-.6-.24-.92l-.74-2.25h-.99l-.66,4.35h.84l.25-2.03c.04-.37.08-.75.12-1.16h.01c.07.38.16.76.28,1.15l.67,2.04h.81l.71-2.2c.08-.25.16-.58.24-1h.01c.04.41.09.77.14,1.09l.32,2.1h.87l-.68-4.35h-.98Z" fill="#6d6e6e"/>
    <path d="M57.89,47.46c0-.38-.09-.66-.27-.83-.2-.2-.54-.3-1.02-.3-.44,0-.85.07-1.21.22l.14.63c.34-.15.66-.22.97-.22.21,0,.36.05.44.14.09.09.13.23.13.43v.12c-.58,0-1.03.09-1.35.27-.34.19-.5.47-.5.84,0,.27.08.48.24.65.17.17.39.26.68.26.51,0,.85-.2,1.02-.61h0c-.02.15-.03.33-.03.55h.79c-.02-.24-.03-.51-.03-.83v-1.32ZM57.07,48.26c0,.2-.06.38-.19.53-.13.16-.29.24-.49.24-.12,0-.21-.04-.28-.11-.07-.07-.1-.16-.1-.26,0-.32.35-.49,1.06-.49v.09Z" fill="#6d6e6e"/>
    <path d="M60.59,46.34c-.51,0-.87.21-1.09.64h0c.03-.16.05-.35.05-.57h-.78v3.21h.83v-1.55c0-.28.07-.52.22-.72.14-.2.32-.31.53-.31.27,0,.4.18.4.53v2.05h.82v-2.25c0-.68-.32-1.02-.95-1.02Z" fill="#6d6e6e"/>
    <path d="M64.9,47.46c0-.38-.09-.66-.27-.83-.2-.2-.54-.3-1.02-.3-.44,0-.85.07-1.21.22l.14.63c.34-.15.66-.22.97-.22.21,0,.36.05.44.14.09.09.13.23.13.43v.12c-.58,0-1.03.09-1.35.27-.34.19-.5.47-.5.84,0,.27.08.48.24.65.17.17.39.26.68.26.51,0,.85-.2,1.02-.61h0c-.02.15-.03.33-.03.55h.79c-.02-.24-.03-.51-.03-.83v-1.32ZM64.08,48.26c0,.2-.06.38-.19.53-.13.16-.29.24-.49.24-.12,0-.21-.04-.28-.11-.07-.07-.1-.16-.1-.26,0-.32.35-.49,1.06-.49v.09Z" fill="#6d6e6e"/>
    <path d="M66.5,47.05h-.01c.04-.23.06-.44.06-.65h-.78v3.21h.83v-1.31c0-.89.3-1.27.89-1.15l.04-.81c-.48-.05-.82.19-1.02.71Z" fill="#6d6e6e"/>
    <path d="M69.31,46.34c-.47,0-.84.16-1.12.49-.27.31-.4.71-.4,1.21,0,1.09.53,1.64,1.58,1.64.4,0,.79-.07,1.16-.2l-.09-.63c-.31.13-.62.19-.93.19-.59,0-.89-.29-.89-.87h1.98c.02-.12.03-.27.03-.46,0-.41-.1-.73-.31-.97-.23-.26-.57-.39-1.02-.39ZM69.82,47.61h-1.19c.05-.45.26-.67.63-.67s.57.22.55.67Z" fill="#6d6e6e"/>
    <path d="M72.67,48.97c-.14,0-.24-.04-.3-.11-.06-.07-.09-.21-.09-.42v-1.41h.78v-.64h-.78v-1.21l-.82.22v.99h-.55v.64h.55v1.63c0,.38.07.64.2.78.13.15.38.22.73.22.22,0,.46-.03.7-.09l-.06-.65c-.1.03-.23.04-.37.04Z" fill="#6d6e6e"/>
    <path d="M76.64,47.11c-.39-.16-.6-.26-.64-.28-.19-.12-.29-.26-.29-.43,0-.35.24-.52.72-.52.25,0,.5.04.75.12l.08-.73c-.26-.06-.53-.09-.79-.09-.52,0-.92.12-1.22.37-.29.24-.43.55-.43.95,0,.53.31.92.92,1.17.37.15.58.24.63.27.19.12.29.26.29.44,0,.38-.24.57-.73.57-.33,0-.65-.06-.95-.19l-.09.81c.29.08.63.12,1.01.12.5,0,.9-.13,1.22-.4.31-.26.46-.6.46-1.01,0-.51-.31-.9-.93-1.16Z" fill="#6d6e6e"/>
    <path d="M80.05,46.34c-.49,0-.84.2-1.05.59h-.01c.04-.17.06-.38.06-.65v-1.38h-.83v4.71h.83v-1.54c0-.29.07-.53.22-.73.14-.2.32-.31.53-.31.27,0,.4.18.4.53v2.05h.82v-2.25c0-.68-.32-1.02-.95-1.02Z" fill="#6d6e6e"/>
    <path d="M84.37,47.46c0-.38-.09-.66-.27-.83-.2-.2-.54-.3-1.02-.3-.44,0-.85.07-1.21.22l.14.63c.34-.15.66-.22.97-.22.21,0,.36.05.44.14.09.09.13.23.13.43v.12c-.58,0-1.03.09-1.35.27-.34.19-.5.47-.5.84,0,.27.08.48.24.65.17.17.39.26.68.26.51,0,.85-.2,1.02-.61h0c-.02.15-.03.33-.03.55h.79c-.02-.24-.03-.51-.03-.83v-1.32ZM83.54,48.26c0,.2-.06.38-.19.53-.13.16-.29.24-.49.24-.12,0-.21-.04-.28-.11-.07-.07-.1-.16-.1-.26,0-.32.35-.49,1.06-.49v.09Z" fill="#6d6e6e"/>
    <path d="M87.13,46.34c-.49,0-.84.2-1.05.59h-.01c.04-.17.06-.38.06-.65v-1.38h-.83v4.71h.83v-1.54c0-.29.07-.53.22-.73.14-.2.32-.31.53-.31.27,0,.4.18.4.53v2.05h.82v-2.25c0-.68-.32-1.02-.95-1.02Z" fill="#6d6e6e"/>
    <path d="M90.68,46.34c-.47,0-.79.19-.97.57h0c.03-.18.05-.39.05-.63v-1.38h-.83v4.62c.37.1.77.15,1.19.15.54,0,.97-.17,1.28-.51.3-.33.45-.77.45-1.32,0-.48-.1-.85-.3-1.11-.21-.26-.5-.39-.88-.39ZM90.18,49.01c-.17,0-.32-.02-.43-.06v-.9c0-.28.06-.52.18-.72.13-.21.3-.32.51-.32.37,0,.55.3.55.9,0,.73-.27,1.09-.81,1.09Z" fill="#6d6e6e"/>
    <path d="M95.04,47.46c0-.38-.09-.66-.27-.83-.2-.2-.54-.3-1.02-.3-.44,0-.85.07-1.21.22l.14.63c.34-.15.66-.22.97-.22.21,0,.36.05.44.14.09.09.13.23.13.43v.12c-.58,0-1.03.09-1.35.27-.34.19-.5.47-.5.84,0,.27.08.48.24.65.17.17.39.26.68.26.51,0,.85-.2,1.02-.61h0c-.02.15-.03.33-.03.55h.79c-.02-.24-.03-.51-.03-.83v-1.32ZM94.21,48.26c0,.2-.06.38-.19.53-.13.16-.29.24-.49.24-.12,0-.21-.04-.28-.11-.07-.07-.1-.16-.1-.26,0-.32.35-.49,1.06-.49v.09Z" fill="#6d6e6e"/>
    <path d="M98.42,47.46c0-.38-.09-.66-.27-.83-.2-.2-.54-.3-1.02-.3-.44,0-.85.07-1.21.22l.14.63c.34-.15.66-.22.97-.22.21,0,.36.05.44.14.09.09.13.23.13.43v.12c-.58,0-1.03.09-1.35.27-.34.19-.5.47-.5.84,0,.27.08.48.24.65.17.17.39.26.68.26.51,0,.85-.2,1.02-.61h0c-.02.15-.03.33-.03.55h.79c-.02-.24-.03-.51-.03-.83v-1.32ZM97.6,48.26c0,.2-.06.38-.19.53-.13.16-.29.24-.49.24-.12,0-.21-.04-.28-.11-.07-.07-.1-.16-.1-.26,0-.32.35-.49,1.06-.49v.09Z" fill="#6d6e6e"/>
    <path d="M102.58,48.9c-.85,0-1.27-.49-1.27-1.47,0-.44.1-.79.3-1.05.21-.27.52-.41.92-.41.3,0,.59.05.85.15l.12-.78c-.29-.09-.6-.13-.93-.13-.71,0-1.25.22-1.64.66-.36.42-.55.98-.55,1.69,0,.61.15,1.09.43,1.45.34.42.87.64,1.58.64.41,0,.78-.07,1.13-.2l-.13-.74c-.25.12-.52.18-.83.18Z" fill="#6d6e6e"/>
    <path d="M105.73,46.34c-.48,0-.88.16-1.18.49-.3.32-.45.73-.45,1.24,0,1.08.5,1.61,1.5,1.61.48,0,.87-.16,1.18-.49.31-.33.46-.74.46-1.24,0-.54-.14-.94-.41-1.22-.26-.26-.62-.39-1.1-.39ZM106.17,48.72c-.13.16-.3.25-.51.25-.48,0-.72-.33-.72-.99,0-.31.08-.55.23-.72.13-.15.3-.22.5-.22.47,0,.71.32.71.95,0,.32-.07.56-.21.73Z" fill="#6d6e6e"/>
    <path d="M108.52,48.78c-.1-.1-.23-.15-.37-.15s-.27.05-.37.15c-.1.1-.15.23-.15.37s.05.27.15.37c.1.1.23.16.37.16s.27-.05.37-.16c.11-.1.16-.23.16-.37s-.05-.27-.16-.37Z" fill="#6d6e6e"/>
    <path d="M52.9,41.08h-.63c-.54,0-.81-.16-.81-.48,0-.28.19-.42.56-.42.21,0,.4.02.57.06l.11-.74c-.18-.03-.39-.05-.64-.05-.52,0-.92.12-1.19.37-.23.21-.35.48-.35.82,0,.24.08.4.25.48-.16-.03-.37-.04-.65-.04v.73h2.79v-.73Z" fill="#6d6e6e"/>
    <path d="M56.75,43.23c.1-.1.15-.21.15-.35s-.05-.25-.15-.35c-.09-.1-.21-.14-.35-.14s-.25.05-.35.14c-.09.1-.14.21-.14.35s.05.26.14.35c.1.1.21.14.35.14s.25-.05.35-.15Z" fill="#6d6e6e"/>
    <path d="M66.26,37.93c.13,0,.24-.05.33-.14.09-.1.14-.21.14-.34s-.05-.25-.14-.34c-.09-.1-.2-.14-.33-.14s-.24.05-.33.14c-.09.1-.14.21-.14.34s.05.25.14.34c.09.1.2.14.33.14Z" fill="#6d6e6e"/>
    <path d="M66.85,36.91c.13,0,.23-.04.31-.13.09-.09.13-.19.13-.32s-.04-.23-.13-.32c-.08-.09-.19-.13-.31-.13s-.22.04-.31.13c-.08.09-.13.19-.13.32s.04.23.13.32c.09.09.19.13.31.13Z" fill="#6d6e6e"/>
    <path d="M66.75,41.32c.1.19.25.32.46.39.19.06.48.1.86.1h3.66v-5.02h-.94v4.28h-1.47c.02-.35.03-.65.03-.92,0-.68-.08-1.33-.23-1.97l-.92.13c.14.62.21,1.25.21,1.91,0,.3-.02.59-.05.86h-.18c-.33,0-.56-.04-.67-.13-.12-.09-.17-.27-.17-.55v-1.79h-.9v1.61c0,.61-.19.91-.57.91-.2,0-.34-.07-.4-.22-.06-.12-.09-.36-.09-.7v-1.32h-.94v1.3c0,.34-.05.57-.15.7-.09.12-.26.18-.49.18h-.77v-.02c0-1.95-.93-2.93-2.8-2.93-.58,0-1.15.09-1.72.28l.09.67c.52-.17,1.03-.26,1.52-.26.7,0,1.22.18,1.54.53.32.35.48.9.48,1.64v.09h-.72v-.16c0-.44-.1-.78-.3-1.03-.22-.28-.56-.42-1.02-.42-.42,0-.76.11-1,.34-.24.22-.36.5-.36.86,0,.19.06.34.18.46-.09-.02-.21-.03-.33-.03h-1.18v-2.61h-.94v2.61h-1.6v-4.28h-.94v5.02h9.87c.49,0,.8-.17.95-.5.12.37.44.55.95.55.55,0,.91-.18,1.07-.55ZM60.64,41.1h-.47c-.45,0-.67-.19-.67-.56,0-.33.18-.49.54-.49.4,0,.6.28.6.85v.2Z" fill="#6d6e6e"/>
    <path d="M66.97,37.44c0,.13.05.25.14.34.09.1.21.14.34.14s.24-.05.33-.14c.09-.1.14-.21.14-.34s-.05-.25-.14-.34c-.09-.1-.2-.14-.33-.14s-.25.05-.34.14c-.09.1-.14.21-.14.34Z" fill="#6d6e6e"/>
    <rect x="72.94" y="36.79" width=".94" height="5.02" fill="#6d6e6e"/>
    <path d="M78.52,37.93c.13,0,.24-.05.33-.14.09-.1.14-.21.14-.34s-.05-.25-.14-.34c-.09-.1-.2-.14-.33-.14s-.24.05-.33.14c-.09.1-.14.21-.14.34s.05.25.14.34c.09.1.2.14.33.14Z" fill="#6d6e6e"/>
    <path d="M77.34,37.93c.13,0,.25-.05.34-.14.09-.1.14-.21.14-.34s-.05-.25-.14-.34c-.09-.1-.21-.14-.34-.14s-.24.05-.33.14c-.09.1-.14.21-.14.34s.05.25.14.34c.09.1.2.14.33.14Z" fill="#6d6e6e"/>
    <path d="M79.6,40.01c0-1.09-.54-1.64-1.61-1.64-.59,0-1.06.18-1.39.53-.31.33-.47.75-.47,1.26,0,1.1.64,1.64,1.91,1.64h1.56v-1.8ZM78.69,41.07h-.54c-.71,0-1.07-.33-1.07-1,0-.28.08-.51.23-.69.15-.18.36-.27.62-.27.51,0,.76.34.76,1.01v.95Z" fill="#6d6e6e"/>
    <path d="M81.81,38.46h-.94v3.43c0,.37-.07.63-.21.79-.12.14-.31.21-.57.21-.19,0-.38-.03-.58-.08l-.07.75c.19.05.39.07.6.07,1.17,0,1.76-.59,1.76-1.78v-3.38Z" fill="#6d6e6e"/>
    <path d="M85.95,37.87c.13,0,.25-.05.35-.14.1-.1.14-.21.14-.35s-.05-.25-.14-.35c-.1-.1-.21-.14-.35-.14s-.25.05-.35.14c-.09.1-.14.21-.14.35s.05.26.14.35c.1.09.21.14.35.14Z" fill="#6d6e6e"/>
    <path d="M87.12,41.81h3.76v-1.8c0-1.09-.54-1.64-1.61-1.64-.59,0-1.05.17-1.39.52-.31.32-.46.72-.46,1.2s.13.83.4,1.02c-.1-.03-.23-.05-.4-.05h-1v-2.61h-.94v2.61h-1.6v-4.28h-.94v5.02h4.18ZM88.57,39.39c.15-.18.36-.27.63-.27.51,0,.76.34.76,1.01v.95h-.54c-.71,0-1.07-.33-1.07-1,0-.28.07-.51.22-.69Z" fill="#6d6e6e"/>
    <path d="M94.93,41.81h5.09v-.48c0-1.36-.53-2.28-1.58-2.75l1.74-1.05v-.93l-2.82,1.77v.69c1.12.26,1.7.93,1.74,2.01h-2.7v-2.45c-.43-.16-.93-.25-1.49-.25-.62,0-1.1.18-1.44.54-.3.32-.45.74-.45,1.24,0,1.1.64,1.65,1.91,1.65ZM94.19,39.39c.15-.18.36-.27.62-.27s.5.04.68.13v1.83h-.46c-.71,0-1.07-.33-1.07-1,0-.28.07-.51.23-.69Z" fill="#6d6e6e"/>
    <path d="M94.22,37.93c.13,0,.25-.05.34-.14.09-.1.14-.21.14-.34s-.05-.25-.14-.34c-.09-.1-.21-.14-.34-.14s-.24.05-.33.14c-.09.1-.14.21-.14.34s.05.25.14.34c.09.1.2.14.33.14Z" fill="#6d6e6e"/>
    <path d="M95.41,37.93c.13,0,.24-.05.33-.14.09-.1.14-.21.14-.34s-.05-.25-.14-.34c-.09-.1-.2-.14-.33-.14s-.24.05-.33.14c-.09.1-.14.21-.14.34s.05.25.14.34c.09.1.2.14.33.14Z" fill="#6d6e6e"/>
    <path d="M105.75,37.44c0,.13.05.25.14.34.09.1.21.14.34.14s.24-.05.33-.14c.09-.1.14-.21.14-.34s-.05-.25-.14-.34c-.09-.1-.2-.14-.33-.14s-.25.05-.34.14c-.09.1-.14.21-.14.34Z" fill="#6d6e6e"/>
    <path d="M105.63,36.91c.13,0,.23-.04.31-.13.09-.09.13-.19.13-.32s-.04-.23-.13-.32c-.08-.09-.19-.13-.31-.13s-.22.04-.31.13c-.08.09-.13.19-.13.32s.04.23.13.32c.09.09.19.13.31.13Z" fill="#6d6e6e"/>
    <path d="M105.05,37.93c.13,0,.24-.05.33-.14.09-.1.14-.21.14-.34s-.05-.25-.14-.34c-.09-.1-.2-.14-.33-.14s-.24.05-.33.14c-.09.1-.14.21-.14.34s.05.25.14.34c.09.1.2.14.33.14Z" fill="#6d6e6e"/>
    <path d="M105.54,41.32c.1.19.25.32.46.39.19.06.47.1.86.1h1.17c.07-.51.11-1.06.11-1.66,0-.68-.08-1.33-.23-1.97l-.92.13c.14.62.21,1.25.21,1.91,0,.3-.02.59-.05.86h-.18c-.33,0-.56-.04-.67-.13-.12-.09-.17-.27-.17-.55v-1.79h-.9v1.61c0,.61-.19.91-.57.91-.2,0-.34-.07-.4-.22-.06-.12-.09-.36-.09-.7v-1.32h-.94v1.3c0,.34-.05.57-.15.7-.09.12-.26.18-.49.18h-.83v-2.61h-.94v3.43c0,.37-.07.63-.2.79-.12.14-.31.21-.57.21-.19,0-.38-.03-.58-.08l-.07.75c.19.05.39.07.6.07,1.17,0,1.76-.59,1.76-1.78v-.03h.83c.49,0,.8-.17.95-.5.12.37.44.55.95.55.55,0,.9-.18,1.07-.55Z" fill="#6d6e6e"/>
  </g>
</svg>